<svg width="30" height="30" viewBox="0 0 30 30" fill="none" xmlns="http://www.w3.org/2000/svg">
<path d="M9.23182 10.5105C8.80394 10.3271 8.3084 10.5253 8.12501 10.9532C7.94163 11.3811 8.13985 11.8767 8.56773 12.0601L13.9573 14.3699V19.7145C13.9573 20.18 14.3347 20.5574 14.8003 20.5574C15.2658 20.5574 15.6432 20.18 15.6432 19.7145V14.3699L21.0327 12.0601C21.4607 11.8767 21.6588 11.3811 21.4756 10.9532C21.2922 10.5253 20.7965 10.3271 20.3687 10.5105L14.8003 12.897L9.23182 10.5105Z" fill="url(#paint0_linear_174_41458)"/>
<path d="M16.6165 4.33711C15.4479 3.88763 14.154 3.88763 12.9854 4.33711L4.621 7.55419C3.6444 7.92981 3 8.86807 3 9.91441V21.0856C3 22.1319 3.6444 23.0702 4.621 23.4458L12.9854 26.6629C14.154 27.1124 15.4479 27.1124 16.6165 26.6629L24.981 23.4458C25.9576 23.0702 26.6019 22.1319 26.6019 21.0856V9.91441C26.6019 8.86807 25.9576 7.92981 24.981 7.55419L16.6165 4.33711ZM13.5906 5.9106C14.3697 5.61094 15.2322 5.61094 16.0113 5.9106L24.3757 9.12767C24.7013 9.25288 24.9161 9.56564 24.9161 9.91441V21.0856C24.9161 21.4342 24.7013 21.7471 24.3757 21.8722L16.0113 25.0893C15.2322 25.3891 14.3697 25.3891 13.5906 25.0893L5.22618 21.8722C4.90064 21.7471 4.68585 21.4342 4.68585 21.0856V9.91441C4.68585 9.56564 4.90064 9.25288 5.22618 9.12767L13.5906 5.9106Z" fill="url(#paint1_linear_174_41458)"/>
<defs>
<linearGradient id="paint0_linear_174_41458" x1="14.8003" y1="10.4421" x2="14.8003" y2="20.5574" gradientUnits="userSpaceOnUse">
<stop stop-color="#499BF5"/>
<stop offset="1" stop-color="#2B5A8F"/>
</linearGradient>
<linearGradient id="paint1_linear_174_41458" x1="14.801" y1="4" x2="14.801" y2="27" gradientUnits="userSpaceOnUse">
<stop stop-color="#499BF5"/>
<stop offset="1" stop-color="#2B5A8F"/>
</linearGradient>
</defs>
</svg>
